<mxfile host="65bd71144e">
    <diagram id="C5RBs43oDa-KdzZeNtuy" name="Page-1">
        <mxGraphModel dx="371" dy="393" grid="1" gridSize="10" guides="1" tooltips="1" connect="1" arrows="1" fold="1" page="1" pageScale="1" pageWidth="827" pageHeight="1169" math="0" shadow="0">
            <root>
                <mxCell id="WIyWlLk6GJQsqaUBKTNV-0"/>
                <mxCell id="WIyWlLk6GJQsqaUBKTNV-1" parent="WIyWlLk6GJQsqaUBKTNV-0"/>
                <mxCell id="Fri2QK8UvAn3s0wxWQ6a-9" value="" style="endArrow=diamondThin;endFill=0;endSize=24;html=1;rounded=0;exitX=-0.006;exitY=0.011;exitDx=0;exitDy=0;entryX=1.004;entryY=0.093;entryDx=0;entryDy=0;entryPerimeter=0;exitPerimeter=0;" parent="WIyWlLk6GJQsqaUBKTNV-1" source="Fri2QK8UvAn3s0wxWQ6a-27" target="Fri2QK8UvAn3s0wxWQ6a-18" edge="1">
                    <mxGeometry width="160" relative="1" as="geometry">
                        <mxPoint x="560" y="120" as="sourcePoint"/>
                        <mxPoint x="379.9999999999999" y="131.96000000000004" as="targetPoint"/>
                    </mxGeometry>
                </mxCell>
                <mxCell id="Fri2QK8UvAn3s0wxWQ6a-10" value="ContÃ©m" style="edgeLabel;html=1;align=center;verticalAlign=middle;resizable=0;points=[];" parent="Fri2QK8UvAn3s0wxWQ6a-9" vertex="1" connectable="0">
                    <mxGeometry x="-0.2059" y="2" relative="1" as="geometry">
                        <mxPoint x="15" y="13" as="offset"/>
                    </mxGeometry>
                </mxCell>
                <mxCell id="Fri2QK8UvAn3s0wxWQ6a-15" value="Grafo" style="swimlane;fontStyle=1;align=center;verticalAlign=top;childLayout=stackLayout;horizontal=1;startSize=26;horizontalStack=0;resizeParent=1;resizeParentMax=0;resizeLast=0;collapsible=1;marginBottom=0;" parent="WIyWlLk6GJQsqaUBKTNV-1" vertex="1">
                    <mxGeometry x="40" y="120" width="310" height="280" as="geometry"/>
                </mxCell>
                <mxCell id="Fri2QK8UvAn3s0wxWQ6a-16" value="+ nome: String {final}&#10;- vertices: ABB&lt;Vertice&gt;" style="text;strokeColor=none;fillColor=none;align=left;verticalAlign=top;spacingLeft=4;spacingRight=4;overflow=hidden;rotatable=0;points=[[0,0.5],[1,0.5]];portConstraint=eastwest;" parent="Fri2QK8UvAn3s0wxWQ6a-15" vertex="1">
                    <mxGeometry y="26" width="310" height="44" as="geometry"/>
                </mxCell>
                <mxCell id="Fri2QK8UvAn3s0wxWQ6a-17" value="" style="line;strokeWidth=1;fillColor=none;align=left;verticalAlign=middle;spacingTop=-1;spacingLeft=3;spacingRight=3;rotatable=0;labelPosition=right;points=[];portConstraint=eastwest;strokeColor=inherit;" parent="Fri2QK8UvAn3s0wxWQ6a-15" vertex="1">
                    <mxGeometry y="70" width="310" height="8" as="geometry"/>
                </mxCell>
                <mxCell id="Fri2QK8UvAn3s0wxWQ6a-18" value="+ carregar (nomeArquivo : String): void&#10;+ salvar (nomeArquivo : String) : void&#10;+ addVertice(novo : Vertice) : boolean&#10;+ existeVertice(idVertice:int) : Vertice&#10;+ addAresta(origem:int, destino:int) : boolean&#10;+ existeAresta(verticeA:int, verticeB:int) : Aresta&#10;+ numVertices(): int&#10;+ numArestas(): int&#10;+ completo() : Boolean&#10;+ subGrafo(vertices:Lista&lt;Vertice&gt;) : Grafo&#10;+ tamanho() : int&#10;+ ordem() : int&#10;" style="text;strokeColor=none;fillColor=none;align=left;verticalAlign=top;spacingLeft=4;spacingRight=4;overflow=hidden;rotatable=0;points=[[0,0.5],[1,0.5]];portConstraint=eastwest;" parent="Fri2QK8UvAn3s0wxWQ6a-15" vertex="1">
                    <mxGeometry y="78" width="310" height="202" as="geometry"/>
                </mxCell>
                <mxCell id="Fri2QK8UvAn3s0wxWQ6a-20" value="Aresta" style="swimlane;fontStyle=1;align=center;verticalAlign=top;childLayout=stackLayout;horizontal=1;startSize=26;horizontalStack=0;resizeParent=1;resizeParentMax=0;resizeLast=0;collapsible=1;marginBottom=0;" parent="WIyWlLk6GJQsqaUBKTNV-1" vertex="1">
                    <mxGeometry x="510" y="421.12" width="170" height="210" as="geometry"/>
                </mxCell>
                <mxCell id="Fri2QK8UvAn3s0wxWQ6a-21" value="- destino: int&#10;- visitada: boolean&#10;- peso: int" style="text;strokeColor=none;fillColor=none;align=left;verticalAlign=top;spacingLeft=4;spacingRight=4;overflow=hidden;rotatable=0;points=[[0,0.5],[1,0.5]];portConstraint=eastwest;" parent="Fri2QK8UvAn3s0wxWQ6a-20" vertex="1">
                    <mxGeometry y="26" width="170" height="54" as="geometry"/>
                </mxCell>
                <mxCell id="Fri2QK8UvAn3s0wxWQ6a-22" value="" style="line;strokeWidth=1;fillColor=none;align=left;verticalAlign=middle;spacingTop=-1;spacingLeft=3;spacingRight=3;rotatable=0;labelPosition=right;points=[];portConstraint=eastwest;strokeColor=inherit;" parent="Fri2QK8UvAn3s0wxWQ6a-20" vertex="1">
                    <mxGeometry y="80" width="170" height="8" as="geometry"/>
                </mxCell>
                <mxCell id="Fri2QK8UvAn3s0wxWQ6a-23" value="+ destino() : int&#10;+ limparVisita () : void&#10;+ peso() : int&#10;+ visitada () : boolean&#10;+ visitar () : void&#10;&#10;" style="text;strokeColor=none;fillColor=none;align=left;verticalAlign=top;spacingLeft=4;spacingRight=4;overflow=hidden;rotatable=0;points=[[0,0.5],[1,0.5]];portConstraint=eastwest;" parent="Fri2QK8UvAn3s0wxWQ6a-20" vertex="1">
                    <mxGeometry y="88" width="170" height="122" as="geometry"/>
                </mxCell>
                <mxCell id="Fri2QK8UvAn3s0wxWQ6a-24" value="Vertice" style="swimlane;fontStyle=1;align=center;verticalAlign=top;childLayout=stackLayout;horizontal=1;startSize=26;horizontalStack=0;resizeParent=1;resizeParentMax=0;resizeLast=0;collapsible=1;marginBottom=0;" parent="WIyWlLk6GJQsqaUBKTNV-1" vertex="1">
                    <mxGeometry x="450" y="50" width="280" height="220" as="geometry"/>
                </mxCell>
                <mxCell id="Fri2QK8UvAn3s0wxWQ6a-25" value="- id: int {final}&#10;- arestas : ABB&lt;Aresta&gt;&#10;- visitado: boolean" style="text;strokeColor=none;fillColor=none;align=left;verticalAlign=top;spacingLeft=4;spacingRight=4;overflow=hidden;rotatable=0;points=[[0,0.5],[1,0.5]];portConstraint=eastwest;" parent="Fri2QK8UvAn3s0wxWQ6a-24" vertex="1">
                    <mxGeometry y="26" width="280" height="54" as="geometry"/>
                </mxCell>
                <mxCell id="Fri2QK8UvAn3s0wxWQ6a-26" value="" style="line;strokeWidth=1;fillColor=none;align=left;verticalAlign=middle;spacingTop=-1;spacingLeft=3;spacingRight=3;rotatable=0;labelPosition=right;points=[];portConstraint=eastwest;strokeColor=inherit;" parent="Fri2QK8UvAn3s0wxWQ6a-24" vertex="1">
                    <mxGeometry y="80" width="280" height="8" as="geometry"/>
                </mxCell>
                <mxCell id="Fri2QK8UvAn3s0wxWQ6a-27" value="+ addAresta(destino:int) : boolean&#10;+ addAresta (destino: int, peso: intt): boolean&#10;+ existeAresta(destino: int) : Aresta&#10;+ arestaApontandoPara (destino: int): Aresta&#10;+ grau() : int&#10;+ limparVisita () : void&#10;+ visitado () : boolean&#10;+ visitar () : void" style="text;strokeColor=none;fillColor=none;align=left;verticalAlign=top;spacingLeft=4;spacingRight=4;overflow=hidden;rotatable=0;points=[[0,0.5],[1,0.5]];portConstraint=eastwest;" parent="Fri2QK8UvAn3s0wxWQ6a-24" vertex="1">
                    <mxGeometry y="88" width="280" height="132" as="geometry"/>
                </mxCell>
                <mxCell id="Fri2QK8UvAn3s0wxWQ6a-29" value="" style="endArrow=diamondThin;endFill=1;endSize=24;html=1;rounded=0;entryX=0.462;entryY=1.022;entryDx=0;entryDy=0;entryPerimeter=0;exitX=0.463;exitY=0.011;exitDx=0;exitDy=0;exitPerimeter=0;" parent="WIyWlLk6GJQsqaUBKTNV-1" source="Fri2QK8UvAn3s0wxWQ6a-20" target="Fri2QK8UvAn3s0wxWQ6a-27" edge="1">
                    <mxGeometry width="160" relative="1" as="geometry">
                        <mxPoint x="290" y="420" as="sourcePoint"/>
                        <mxPoint x="450" y="420" as="targetPoint"/>
                    </mxGeometry>
                </mxCell>
                <mxCell id="Fri2QK8UvAn3s0wxWQ6a-30" value="Possui" style="edgeLabel;html=1;align=center;verticalAlign=middle;resizable=0;points=[];" parent="Fri2QK8UvAn3s0wxWQ6a-29" vertex="1" connectable="0">
                    <mxGeometry x="-0.3086" y="-3" relative="1" as="geometry">
                        <mxPoint x="19" y="2" as="offset"/>
                    </mxGeometry>
                </mxCell>
                <mxCell id="0" value="Classname" style="swimlane;fontStyle=1;align=center;verticalAlign=top;childLayout=stackLayout;horizontal=1;startSize=26;horizontalStack=0;resizeParent=1;resizeParentMax=0;resizeLast=0;collapsible=1;marginBottom=0;" parent="WIyWlLk6GJQsqaUBKTNV-1" vertex="1">
                    <mxGeometry x="10" y="530" width="160" height="86" as="geometry"/>
                </mxCell>
                <mxCell id="1" value="+ field: type" style="text;strokeColor=none;fillColor=none;align=left;verticalAlign=top;spacingLeft=4;spacingRight=4;overflow=hidden;rotatable=0;points=[[0,0.5],[1,0.5]];portConstraint=eastwest;" parent="0" vertex="1">
                    <mxGeometry y="26" width="160" height="26" as="geometry"/>
                </mxCell>
                <mxCell id="2" value="" style="line;strokeWidth=1;fillColor=none;align=left;verticalAlign=middle;spacingTop=-1;spacingLeft=3;spacingRight=3;rotatable=0;labelPosition=right;points=[];portConstraint=eastwest;" parent="0" vertex="1">
                    <mxGeometry y="52" width="160" height="8" as="geometry"/>
                </mxCell>
                <mxCell id="3" value="+ method(type): type" style="text;strokeColor=none;fillColor=none;align=left;verticalAlign=top;spacingLeft=4;spacingRight=4;overflow=hidden;rotatable=0;points=[[0,0.5],[1,0.5]];portConstraint=eastwest;" parent="0" vertex="1">
                    <mxGeometry y="60" width="160" height="26" as="geometry"/>
                </mxCell>
                <mxCell id="4" value="Classname" style="swimlane;fontStyle=1;align=center;verticalAlign=top;childLayout=stackLayout;horizontal=1;startSize=26;horizontalStack=0;resizeParent=1;resizeParentMax=0;resizeLast=0;collapsible=1;marginBottom=0;" parent="WIyWlLk6GJQsqaUBKTNV-1" vertex="1">
                    <mxGeometry x="240" y="530" width="160" height="86" as="geometry"/>
                </mxCell>
                <mxCell id="5" value="+ field: type" style="text;strokeColor=none;fillColor=none;align=left;verticalAlign=top;spacingLeft=4;spacingRight=4;overflow=hidden;rotatable=0;points=[[0,0.5],[1,0.5]];portConstraint=eastwest;" parent="4" vertex="1">
                    <mxGeometry y="26" width="160" height="26" as="geometry"/>
                </mxCell>
                <mxCell id="6" value="" style="line;strokeWidth=1;fillColor=none;align=left;verticalAlign=middle;spacingTop=-1;spacingLeft=3;spacingRight=3;rotatable=0;labelPosition=right;points=[];portConstraint=eastwest;" parent="4" vertex="1">
                    <mxGeometry y="52" width="160" height="8" as="geometry"/>
                </mxCell>
                <mxCell id="7" value="+ method(type): type" style="text;strokeColor=none;fillColor=none;align=left;verticalAlign=top;spacingLeft=4;spacingRight=4;overflow=hidden;rotatable=0;points=[[0,0.5],[1,0.5]];portConstraint=eastwest;" parent="4" vertex="1">
                    <mxGeometry y="60" width="160" height="26" as="geometry"/>
                </mxCell>
            </root>
        </mxGraphModel>
    </diagram>
</mxfile>